
<svg version="1.2" xmlns="http://www.w3.org/2000/svg" viewBox="0 0 757 114" width="757" height="114">
    <title>image</title>
    <style>
        .s0 { fill: #001d3e }
        .s1 { fill: none }
    </style>
    <g id="Layer">
        <g id="Layer">
            <path id="Layer" fill-rule="evenodd" class="s0" d="m94.9 34.9v28.5h-25.4v18.9h10.5v-10.8h14.8v10.4c0 4.1-3.3 7.4-7.4 7.4h-25.4c-4.1 0-7.4-3.3-7.4-7.4v-47c0-4.1 3.3-7.4 7.4-7.4h25.4c4.1 0 7.4 3.3 7.5 7.4zm-25.4-0.4v22.1h10.5v-22.1z"/>
            <path id="Layer" fill-rule="evenodd" class="s0" d="m142.4 34.9v28.5h-25.4v18.9h10.5v-10.8h14.9v10.4c0 4.1-3.3 7.4-7.4 7.4h-25.4c-4.1 0-7.4-3.3-7.4-7.4v-47c0-4.1 3.3-7.4 7.4-7.4h25.4c4.1 0 7.4 3.3 7.4 7.4zm-25.3 21.7h10.5v-22.1h-10.5z"/>
            <path id="Layer" fill-rule="evenodd" class="s0" d="m49 14.1v41.3c0 4.5-3.7 8.2-8.2 8.2h-20.6v25.8h-16.4v-83.5h37c4.6 0 8.2 3.6 8.2 8.2zm-28.7 42.5h12.4v-43.8h-12.4z"/>
            <path id="Layer" class="s0" d="m183 56.6h-3.1l10.5-29.1h-14.9l-10.5 29.1v-50.7h-14.9v83.5h14.9v-25.8h10.5v25.8h14.9v-25.4c0-4.1-3.3-7.4-7.4-7.4z"/>
            <path id="Layer" fill-rule="evenodd" class="s0" d="m500.4 34.9v28.5h-25.4v18.9h10.4v-10.8h14.9v10.4c0 4.1-3.3 7.4-7.4 7.4h-25.4c-4.1 0-7.4-3.3-7.4-7.4v-47c0-4.1 3.3-7.4 7.4-7.4h25.4c4.1 0 7.5 3.3 7.5 7.4zm-25.4 21.7h10.5v-22.1h-10.5z"/>
            <path id="Layer" fill-rule="evenodd" class="s0" d="m356.8 34.9v47c0 4.1-3.3 7.4-7.4 7.4h-25.4c-4.1 0-7.4-3.3-7.4-7.4v-47c0-4.1 3.3-7.4 7.4-7.4h25.4c4.1 0 7.4 3.3 7.4 7.4zm-25.3 47.5h10.5v-47.9h-10.5z"/>
            <path id="Layer" class="s0" d="m294.1 5.9h14.8v83.5h-14.8z"/>
            <path id="Layer" fill-rule="evenodd" class="s0" d="m404.8 34.9v47c0 4.1-3.3 7.4-7.4 7.4h-17.9v21.7h-14.9v-83.5h32.8c4.1 0 7.4 3.3 7.4 7.4zm-25.4 47.5h10.5v-47.9h-10.5z"/>
            <path id="Layer" fill-rule="evenodd" class="s0" d="m452.4 34.9v47c0 4.1-3.3 7.4-7.4 7.4h-17.9v21.7h-14.9v-83.5h32.8c4.1 0 7.4 3.3 7.4 7.4zm-25.3 47.5h10.5v-47.9h-10.5z"/>
            <path id="Layer" fill-rule="evenodd" class="s0" d="m596.5 35v47c0 4.1-3.3 7.4-7.4 7.4h-32.8v-83.5h14.9v21.6h17.9c4.1 0 7.5 3.3 7.4 7.5zm-25.3 47.4h10.5v-47.9h-10.5z"/>
            <path id="Layer" class="s0" d="m540.9 27.5h-32.8v61.9h14.9v-54.9h10.5v54.9h14.9v-54.5c-0.1-4.1-3.4-7.4-7.5-7.4z"/>
            <path id="Layer" class="s0" d="m644.5 27.5h-14.8v54.9h-10.5v-54.9h-14.8v54.5c0 4.1 3.3 7.4 7.4 7.4h32.8v-61.9z"/>
            <path id="Layer" class="s0" d="m677.6 27.5h-17.9c-4.1 0-7.4 3.3-7.4 7.4v54.4h14.9v-54.8h10.5v-7z"/>
            <path id="Layer" fill-rule="evenodd" class="s0" d="m721.5 103.5c0 4.1-3.3 7.4-7.4 7.4h-25.4c-4.1 0-7.4-3.3-7.4-7.4v-7.4h14.8v7.9h10.5v-14.7h-17.9c-4.1 0-7.4-3.3-7.4-7.4v-47c0-4.1 3.3-7.4 7.4-7.4h32.8zm-14.8-69h-10.5v47.9h10.5z"/>
            <path id="Layer" class="s0" d="m269.9 34.5h16.4v-20.4c0-4.5-3.7-8.2-8.2-8.2h-28.8c-4.5 0-8.2 3.7-8.2 8.2v67.1c0 4.5 3.7 8.2 8.2 8.2h28.8c4.5 0 8.2-3.7 8.2-8.2v-24.6h-16.4v25.8h-12.4v-69.6h12.4z"/>
            <path id="Layer" fill-rule="evenodd" class="s0" d="m242.3 85.3c-0.8-1.1-2.6-3.5-6-7.9-2.5 2.4-5.3 4.5-7.8 6.5-10.6 8.2-25 7.2-33.2-3.4-8.2-10.6-5.6-24.9 5-33.1 2.5-2 5.3-4.1 8.2-6-1.4-1.9-2.3-3-2.3-3-6.8-8.8-5.2-21.5 3.6-28.3 7-5.5 16.4-5.5 23.4-0.9v19.7l-11.8-15.3c-2.4-3.1-6.9-3.7-10-1.3-3.1 2.4-3.7 6.9-1.3 10l31.1 40.3v18.6c0 1.4 0.4 2.9 1.1 4.1zm0.7 0.8q-0.4-0.4-0.7-0.8c0.5 0.6 0.7 0.8 0.7 0.8zm-8.3-10.5c-8.2-10.7-19.1-24.9-24.8-32.3-8.3 7-9.7 19.4-3 28.1 6.7 8.7 19 10.5 27.8 4.2z"/>
            <path id="Layer" class="s0" d="m747.4 5.9l-3.6 7.3-3.8-7.3-3.7 2 4.9 7-8.6-0.7v3.9l8.6-0.7-4.9 7 3.7 2.1 3.8-7.3 3.6 7.3 3.7-2.1-4.8-7 8.6 0.7v-3.9l-8.6 0.7 4.8-7z"/>
        </g>
        <path id="Layer" fill-rule="evenodd" class="s1" d="m-50.6 49.2h47c4.1 0 7.4 3.3 7.4 7.4v25.4c0 4.1-3.3 7.4-7.4 7.4h-47c-4.1 0-7.4-3.3-7.4-7.4v-25.4c0-4.1 3.3-7.4 7.4-7.4zm47.5 25.3v-10.5h-47.9v10.5z"/>
        <path id="Layer" fill-rule="evenodd" class="s1" d="m728.9 49.2h47c4.1 0 7.4 3.3 7.4 7.4v25.4c0 4.1-3.3 7.4-7.4 7.4h-47c-4.1 0-7.4-3.3-7.4-7.4v-25.4c0-4.1 3.4-7.4 7.4-7.4zm47.5 25.3v-10.5h-47.9v10.5z"/>
        <path id="Layer" fill-rule="evenodd" class="s1" d="m392 118.4v47c0 4.1-3.3 7.4-7.4 7.4h-25.4c-4.1 0-7.4-3.3-7.4-7.4v-47c0-4.1 3.3-7.4 7.4-7.4h25.4c4.1 0 7.4 3.4 7.4 7.4zm-25.4 47.5h10.5v-47.9h-10.5z"/>
        <path id="Layer" fill-rule="evenodd" class="s1" d="m306.4-48.6v47c0 4.1-3.3 7.4-7.4 7.4h-25.4c-4.1 0-7.4-3.3-7.4-7.4v-47c0-4.1 3.3-7.4 7.4-7.4h25.4c4.1 0 7.4 3.3 7.4 7.4zm-25.3 47.5h10.5v-47.9h-10.5z"/>
    </g>
</svg>
